<mxfile host="65bd71144e">
    <diagram id="nRdlX2xwZaKq3SLX7g03" name="Page-1">
        <mxGraphModel dx="1412" dy="916" grid="1" gridSize="10" guides="1" tooltips="1" connect="1" arrows="1" fold="1" page="1" pageScale="1" pageWidth="827" pageHeight="1169" math="0" shadow="0">
            <root>
                <mxCell id="0"/>
                <mxCell id="1" parent="0"/>
                <mxCell id="2" value="Order&#xa;Service" style="shape=hexagon;perimeter=hexagonPerimeter2;whiteSpace=wrap;html=1;fixedSize=1;size=40;fillColor=#cce5ff;strokeColor=#36393d;fontStyle=0" vertex="1" parent="1">
                    <mxGeometry x="150" y="40" width="160" height="120" as="geometry"/>
                </mxCell>
                <mxCell id="11" value="" style="shape=cylinder3;whiteSpace=wrap;html=1;boundedLbl=1;backgroundOutline=1;size=9.999999999999982;fillColor=#e1d5e7;strokeColor=#000000;" vertex="1" parent="1">
                    <mxGeometry x="280" y="130" width="40" height="30" as="geometry"/>
                </mxCell>
                <mxCell id="12" value="" style="shape=cylinder3;whiteSpace=wrap;html=1;boundedLbl=1;backgroundOutline=1;size=9.999999999999982;fillColor=#e1d5e7;strokeColor=#000000;" vertex="1" parent="1">
                    <mxGeometry x="280" y="120" width="40" height="30" as="geometry"/>
                </mxCell>
                <mxCell id="13" value="" style="shape=cylinder3;whiteSpace=wrap;html=1;boundedLbl=1;backgroundOutline=1;size=9.999999999999982;fillColor=#e1d5e7;strokeColor=#000000;" vertex="1" parent="1">
                    <mxGeometry x="280" y="110" width="40" height="30" as="geometry"/>
                </mxCell>
                <mxCell id="14" value="Message&#xa;consumer" style="rounded=0;fillColor=#f8cecc;strokeColor=#000000;textShadow=0;whiteSpace=wrap;html=1;" vertex="1" parent="1">
                    <mxGeometry x="120" y="110" width="60" height="40" as="geometry"/>
                </mxCell>
                <mxCell id="15" value="Message&#xa;producer" style="rounded=0;whiteSpace=wrap;html=1;fillColor=#d5e8d4;strokeColor=#000000;" vertex="1" parent="1">
                    <mxGeometry x="280" y="50" width="60" height="40" as="geometry"/>
                </mxCell>
                <mxCell id="16" value="REST&#xa;API" style="rounded=0;fillColor=#f8cecc;strokeColor=#000000;textShadow=0;whiteSpace=wrap;html=1;" vertex="1" parent="1">
                    <mxGeometry x="120" y="50" width="60" height="40" as="geometry"/>
                </mxCell>
                <mxCell id="17" value="Message broker" style="rounded=0;whiteSpace=wrap;html=1;verticalAlign=top;" vertex="1" parent="1">
                    <mxGeometry x="440" y="40" width="200" height="600" as="geometry"/>
                </mxCell>
                <mxCell id="19" value="Consumer Service&#xa;request channel" style="shape=dataStorage;whiteSpace=wrap;html=1;fixedSize=1;size=10;fillColor=#ffe6cc;strokeColor=#000000;" vertex="1" parent="1">
                    <mxGeometry x="460" y="80" width="150" height="60" as="geometry"/>
                </mxCell>
                <mxCell id="20" value="" style="ellipse;whiteSpace=wrap;html=1;fillColor=#f0a30a;fontColor=#000000;strokeColor=#000000;" vertex="1" parent="1">
                    <mxGeometry x="600" y="80" width="20" height="60" as="geometry"/>
                </mxCell>
                <mxCell id="32" style="edgeStyle=orthogonalEdgeStyle;html=1;elbow=vertical;curved=1;" edge="1" parent="1" source="21" target="14">
                    <mxGeometry relative="1" as="geometry"/>
                </mxCell>
                <mxCell id="21" value="Create order saga&lt;br&gt;reply channel" style="shape=dataStorage;whiteSpace=wrap;html=1;fixedSize=1;size=10;fillColor=#fff2cc;strokeColor=#000000;" vertex="1" parent="1">
                    <mxGeometry x="460" y="200" width="150" height="60" as="geometry"/>
                </mxCell>
                <mxCell id="22" value="" style="ellipse;whiteSpace=wrap;html=1;fillColor=#e3c800;fontColor=#000000;strokeColor=#000000;" vertex="1" parent="1">
                    <mxGeometry x="600" y="200" width="20" height="60" as="geometry"/>
                </mxCell>
                <mxCell id="23" value="Kitchen Service&#xa;request channel" style="shape=dataStorage;whiteSpace=wrap;html=1;fixedSize=1;size=5;fillColor=#ffe6cc;strokeColor=#000000;" vertex="1" parent="1">
                    <mxGeometry x="455" y="320" width="155" height="60" as="geometry"/>
                </mxCell>
                <mxCell id="24" value="" style="ellipse;whiteSpace=wrap;html=1;fillColor=#f0a30a;fontColor=#000000;strokeColor=#000000;" vertex="1" parent="1">
                    <mxGeometry x="600" y="320" width="20" height="60" as="geometry"/>
                </mxCell>
                <mxCell id="25" value="Accounting Service&lt;br&gt;request channel" style="shape=dataStorage;whiteSpace=wrap;html=1;fixedSize=1;size=10;fillColor=#ffe6cc;strokeColor=#000000;" vertex="1" parent="1">
                    <mxGeometry x="455" y="440" width="155" height="60" as="geometry"/>
                </mxCell>
                <mxCell id="26" value="" style="ellipse;whiteSpace=wrap;html=1;fillColor=#f0a30a;fontColor=#000000;strokeColor=#000000;" vertex="1" parent="1">
                    <mxGeometry x="600" y="440" width="20" height="60" as="geometry"/>
                </mxCell>
                <mxCell id="27" value="Order Service&lt;br&gt;request channel" style="shape=dataStorage;whiteSpace=wrap;html=1;fixedSize=1;size=10;fillColor=#ffe6cc;strokeColor=#000000;" vertex="1" parent="1">
                    <mxGeometry x="455" y="560" width="155" height="60" as="geometry"/>
                </mxCell>
                <mxCell id="28" value="" style="ellipse;whiteSpace=wrap;html=1;fillColor=#f0a30a;fontColor=#000000;strokeColor=#000000;" vertex="1" parent="1">
                    <mxGeometry x="600" y="560" width="20" height="60" as="geometry"/>
                </mxCell>
                <mxCell id="30" value="createOrder()" style="edgeStyle=none;html=1;endArrow=classic;endFill=1;" edge="1" parent="1" source="29" target="16">
                    <mxGeometry y="10" relative="1" as="geometry">
                        <mxPoint as="offset"/>
                    </mxGeometry>
                </mxCell>
                <mxCell id="29" value="" style="ellipse;whiteSpace=wrap;html=1;aspect=fixed;" vertex="1" parent="1">
                    <mxGeometry x="20" y="60" width="20" height="20" as="geometry"/>
                </mxCell>
                <mxCell id="31" style="edgeStyle=none;html=1;dashed=1;entryX=0;entryY=0.5;entryDx=0;entryDy=0;exitX=1;exitY=0.5;exitDx=0;exitDy=0;" edge="1" parent="1" source="15" target="19">
                    <mxGeometry relative="1" as="geometry"/>
                </mxCell>
                <mxCell id="33" value="Consumer&lt;br&gt;Service" style="shape=hexagon;perimeter=hexagonPerimeter2;whiteSpace=wrap;html=1;fixedSize=1;size=40;fillColor=#cce5ff;strokeColor=#36393d;fontStyle=0" vertex="1" parent="1">
                    <mxGeometry x="770" y="40" width="160" height="120" as="geometry"/>
                </mxCell>
                <mxCell id="34" value="" style="shape=cylinder3;whiteSpace=wrap;html=1;boundedLbl=1;backgroundOutline=1;size=9.999999999999982;fillColor=#e1d5e7;strokeColor=#000000;" vertex="1" parent="1">
                    <mxGeometry x="900" y="130" width="40" height="30" as="geometry"/>
                </mxCell>
                <mxCell id="35" value="" style="shape=cylinder3;whiteSpace=wrap;html=1;boundedLbl=1;backgroundOutline=1;size=9.999999999999982;fillColor=#e1d5e7;strokeColor=#000000;" vertex="1" parent="1">
                    <mxGeometry x="900" y="120" width="40" height="30" as="geometry"/>
                </mxCell>
                <mxCell id="36" value="" style="shape=cylinder3;whiteSpace=wrap;html=1;boundedLbl=1;backgroundOutline=1;size=9.999999999999982;fillColor=#e1d5e7;strokeColor=#000000;" vertex="1" parent="1">
                    <mxGeometry x="900" y="110" width="40" height="30" as="geometry"/>
                </mxCell>
                <mxCell id="37" value="Message&#xa;consumer" style="rounded=0;fillColor=#f8cecc;strokeColor=#000000;textShadow=0;whiteSpace=wrap;html=1;" vertex="1" parent="1">
                    <mxGeometry x="740" y="110" width="60" height="40" as="geometry"/>
                </mxCell>
                <mxCell id="41" style="edgeStyle=orthogonalEdgeStyle;html=1;entryX=1;entryY=0.5;entryDx=0;entryDy=0;" edge="1" parent="1" source="38" target="21">
                    <mxGeometry relative="1" as="geometry">
                        <mxPoint x="670" y="240" as="targetPoint"/>
                        <Array as="points">
                            <mxPoint x="980" y="70"/>
                            <mxPoint x="980" y="230"/>
                        </Array>
                    </mxGeometry>
                </mxCell>
                <mxCell id="38" value="Message&#xa;producer" style="rounded=0;whiteSpace=wrap;html=1;fillColor=#d5e8d4;strokeColor=#000000;" vertex="1" parent="1">
                    <mxGeometry x="900" y="50" width="60" height="40" as="geometry"/>
                </mxCell>
                <mxCell id="40" style="edgeStyle=none;html=1;dashed=1;exitX=1;exitY=0.5;exitDx=0;exitDy=0;entryX=0;entryY=0.5;entryDx=0;entryDy=0;" edge="1" parent="1" source="19" target="37">
                    <mxGeometry relative="1" as="geometry"/>
                </mxCell>
                <mxCell id="42" style="edgeStyle=none;html=1;dashed=1;exitX=1;exitY=0.5;exitDx=0;exitDy=0;entryX=0;entryY=0.5;entryDx=0;entryDy=0;" edge="1" parent="1" source="15" target="23">
                    <mxGeometry relative="1" as="geometry"/>
                </mxCell>
                <mxCell id="43" style="edgeStyle=none;html=1;exitX=1;exitY=0.5;exitDx=0;exitDy=0;entryX=0;entryY=0.5;entryDx=0;entryDy=0;dashed=1;" edge="1" parent="1" source="15" target="25">
                    <mxGeometry relative="1" as="geometry"/>
                </mxCell>
                <mxCell id="44" value="Kitchen&lt;br&gt;Service" style="shape=hexagon;perimeter=hexagonPerimeter2;whiteSpace=wrap;html=1;fixedSize=1;size=40;fillColor=#cce5ff;strokeColor=#36393d;fontStyle=0" vertex="1" parent="1">
                    <mxGeometry x="770" y="280" width="160" height="120" as="geometry"/>
                </mxCell>
                <mxCell id="45" value="" style="shape=cylinder3;whiteSpace=wrap;html=1;boundedLbl=1;backgroundOutline=1;size=9.999999999999982;fillColor=#e1d5e7;strokeColor=#000000;" vertex="1" parent="1">
                    <mxGeometry x="900" y="370" width="40" height="30" as="geometry"/>
                </mxCell>
                <mxCell id="46" value="" style="shape=cylinder3;whiteSpace=wrap;html=1;boundedLbl=1;backgroundOutline=1;size=9.999999999999982;fillColor=#e1d5e7;strokeColor=#000000;" vertex="1" parent="1">
                    <mxGeometry x="900" y="360" width="40" height="30" as="geometry"/>
                </mxCell>
                <mxCell id="47" value="" style="shape=cylinder3;whiteSpace=wrap;html=1;boundedLbl=1;backgroundOutline=1;size=9.999999999999982;fillColor=#e1d5e7;strokeColor=#000000;" vertex="1" parent="1">
                    <mxGeometry x="900" y="350" width="40" height="30" as="geometry"/>
                </mxCell>
                <mxCell id="48" value="Message&#xa;consumer" style="rounded=0;fillColor=#f8cecc;strokeColor=#000000;textShadow=0;whiteSpace=wrap;html=1;" vertex="1" parent="1">
                    <mxGeometry x="740" y="350" width="60" height="40" as="geometry"/>
                </mxCell>
                <mxCell id="58" style="edgeStyle=orthogonalEdgeStyle;html=1;entryX=1;entryY=0.5;entryDx=0;entryDy=0;" edge="1" parent="1" source="49" target="21">
                    <mxGeometry relative="1" as="geometry">
                        <mxPoint x="740" y="249.9999999999999" as="targetPoint"/>
                        <Array as="points">
                            <mxPoint x="980" y="310"/>
                            <mxPoint x="980" y="230"/>
                        </Array>
                    </mxGeometry>
                </mxCell>
                <mxCell id="49" value="Message&#xa;producer" style="rounded=0;whiteSpace=wrap;html=1;fillColor=#d5e8d4;strokeColor=#000000;" vertex="1" parent="1">
                    <mxGeometry x="900" y="290" width="60" height="40" as="geometry"/>
                </mxCell>
                <mxCell id="50" style="edgeStyle=none;html=1;exitX=1;exitY=0.5;exitDx=0;exitDy=0;dashed=1;entryX=0;entryY=0.5;entryDx=0;entryDy=0;" edge="1" parent="1" source="23" target="48">
                    <mxGeometry relative="1" as="geometry"/>
                </mxCell>
                <mxCell id="51" value="Kitchen&lt;br&gt;Service" style="shape=hexagon;perimeter=hexagonPerimeter2;whiteSpace=wrap;html=1;fixedSize=1;size=40;fillColor=#cce5ff;strokeColor=#36393d;fontStyle=0" vertex="1" parent="1">
                    <mxGeometry x="770" y="480" width="160" height="120" as="geometry"/>
                </mxCell>
                <mxCell id="52" value="" style="shape=cylinder3;whiteSpace=wrap;html=1;boundedLbl=1;backgroundOutline=1;size=9.999999999999982;fillColor=#e1d5e7;strokeColor=#000000;" vertex="1" parent="1">
                    <mxGeometry x="900" y="570" width="40" height="30" as="geometry"/>
                </mxCell>
                <mxCell id="53" value="" style="shape=cylinder3;whiteSpace=wrap;html=1;boundedLbl=1;backgroundOutline=1;size=9.999999999999982;fillColor=#e1d5e7;strokeColor=#000000;" vertex="1" parent="1">
                    <mxGeometry x="900" y="560" width="40" height="30" as="geometry"/>
                </mxCell>
                <mxCell id="54" value="" style="shape=cylinder3;whiteSpace=wrap;html=1;boundedLbl=1;backgroundOutline=1;size=9.999999999999982;fillColor=#e1d5e7;strokeColor=#000000;" vertex="1" parent="1">
                    <mxGeometry x="900" y="550" width="40" height="30" as="geometry"/>
                </mxCell>
                <mxCell id="55" value="Message&#xa;consumer" style="rounded=0;fillColor=#f8cecc;strokeColor=#000000;textShadow=0;whiteSpace=wrap;html=1;" vertex="1" parent="1">
                    <mxGeometry x="740" y="550" width="60" height="40" as="geometry"/>
                </mxCell>
                <mxCell id="59" style="edgeStyle=orthogonalEdgeStyle;html=1;entryX=1;entryY=0.5;entryDx=0;entryDy=0;" edge="1" parent="1" source="56" target="21">
                    <mxGeometry relative="1" as="geometry">
                        <Array as="points">
                            <mxPoint x="980" y="510"/>
                            <mxPoint x="980" y="230"/>
                        </Array>
                    </mxGeometry>
                </mxCell>
                <mxCell id="56" value="Message&#xa;producer" style="rounded=0;whiteSpace=wrap;html=1;fillColor=#d5e8d4;strokeColor=#000000;" vertex="1" parent="1">
                    <mxGeometry x="900" y="490" width="60" height="40" as="geometry"/>
                </mxCell>
                <mxCell id="57" style="edgeStyle=none;html=1;exitX=1;exitY=0.5;exitDx=0;exitDy=0;entryX=0;entryY=0.5;entryDx=0;entryDy=0;dashed=1;" edge="1" parent="1" source="25" target="55">
                    <mxGeometry relative="1" as="geometry"/>
                </mxCell>
                <mxCell id="60" style="edgeStyle=none;html=1;entryX=0;entryY=0.5;entryDx=0;entryDy=0;exitX=1;exitY=0.5;exitDx=0;exitDy=0;dashed=1;" edge="1" parent="1" source="15" target="27">
                    <mxGeometry relative="1" as="geometry"/>
                </mxCell>
                <mxCell id="61" style="edgeStyle=orthogonalEdgeStyle;html=1;entryX=0.5;entryY=1;entryDx=0;entryDy=0;exitX=1;exitY=0.5;exitDx=0;exitDy=0;dashed=1;" edge="1" parent="1" source="27" target="14">
                    <mxGeometry relative="1" as="geometry">
                        <Array as="points">
                            <mxPoint x="660" y="590"/>
                            <mxPoint x="660" y="660"/>
                            <mxPoint x="150" y="660"/>
                        </Array>
                    </mxGeometry>
                </mxCell>
            </root>
        </mxGraphModel>
    </diagram>
</mxfile>